<?xml version="1.0" encoding="utf-8"?>
<!-- Generator: Adobe Illustrator 21.0.2, SVG Export Plug-In . SVG Version: 6.00 Build 0)  -->
<svg version="1.1" id="Layer_1" xmlns="http://www.w3.org/2000/svg" xmlns:xlink="http://www.w3.org/1999/xlink" x="0px" y="0px"
	 viewBox="0 0 68 67.5" style="enable-background:new 0 0 68 67.5;" xml:space="preserve">
<style type="text/css">
	.st0{fill:#FFFFFF;}
	.st1{fill:#D68F85;}
	.st2{font-family:'BodoniSvtyTwoSCITCTT-Book';}
	.st3{font-size:10px;}
	.st4{fill:#F7D1C6;}
	.st5{fill:#FCFCFC;}
	.st6{font-family:'Apple-Chancery';}
	.st7{font-size:41.4718px;}
	.st8{fill:#AF4141;}
</style>
<path d="M90.9,222.8c-0.2,0-0.5,0-0.7,0c0-0.1,0-0.2,0-0.2c0.2,0,0.5,0,0.7,0C90.9,222.6,90.9,222.7,90.9,222.8z"/>
<path class="st0" d="M34.7,26.2v0.1l0,0C34.7,26.3,34.7,26.3,34.7,26.2L34.7,26.2z"/>
<path class="st0" d="M41.4,26.2v0.1l0,0C41.4,26.3,41.4,26.3,41.4,26.2L41.4,26.2z"/>
<path class="st0" d="M28,26.2v0.1l0,0C28,26.3,28,26.3,28,26.2L28,26.2z"/>
<text transform="matrix(1 0 0 1 4.75 52.75)" class="st1 st2 st3">Violette.Style</text>
<ellipse class="st4" cx="34" cy="25.3" rx="15" ry="15"/>
<text transform="matrix(0.6762 -0.2609 0.4043 0.9146 28.7408 43.2419)" class="st5 st6 st7">V</text>
<path class="st8" d="M16,15.1"/>
</svg>
